<svg width="25" height="24" viewBox="0 0 25 24" fill="none" xmlns="http://www.w3.org/2000/svg">
<path d="M18.9234 1.87103L18.4363 8.2064L23.8486 11.5401C24.1433 11.7202 24.3775 11.9839 24.5216 12.2979C24.6656 12.612 24.7131 12.9623 24.6579 13.3047C24.6028 13.647 24.4475 13.966 24.2118 14.2214C23.976 14.4767 23.6703 14.6569 23.3333 14.7393L17.1646 16.227L15.6747 22.3979C15.5916 22.7342 15.4111 23.039 15.1558 23.274C14.9005 23.5089 14.5819 23.6636 14.2401 23.7184C13.8983 23.7733 13.5486 23.7259 13.235 23.5822C12.9214 23.4385 12.6579 23.2049 12.4778 22.9109L9.14786 17.4949L2.81248 17.982C2.46772 18.0082 2.12354 17.9323 1.82293 17.7638C1.52231 17.5953 1.27859 17.3417 1.12219 17.0346C0.965792 16.7274 0.903651 16.3804 0.943529 16.0369C0.983407 15.6933 1.12354 15.3685 1.34641 15.1029L5.46048 10.2719L3.03797 4.39873C2.9053 4.07929 2.87089 3.72698 2.9391 3.3866C3.00731 3.04622 3.17506 2.73314 3.42104 2.48717C3.66701 2.24119 3.98009 2.07344 4.32047 2.00523C4.66085 1.93702 5.01316 1.97143 5.3326 2.1041L11.205 4.52737L16.036 0.4133C16.3013 0.189142 16.6263 0.0478186 16.9703 0.00703464C17.3144 -0.0337493 17.6621 0.0278197 17.97 0.184029C18.2779 0.340239 18.5322 0.584142 18.7011 0.885178C18.8701 1.18621 18.9461 1.531 18.9196 1.87633L18.9234 1.87103Z" fill="black" fill-opacity="0.5"/>
</svg>
