<svg width="24" height="24" viewBox="0 0 24 24" fill="none" xmlns="http://www.w3.org/2000/svg">
<path d="M18.1578 1.87103L17.6707 8.2064L23.083 11.5401C23.3777 11.7202 23.6119 11.9839 23.7559 12.2979C23.9 12.612 23.9474 12.9623 23.8923 13.3047C23.8372 13.647 23.6819 13.966 23.4461 14.2214C23.2104 14.4767 22.9047 14.6569 22.5677 14.7393L16.399 16.227L14.9091 22.3979C14.826 22.7342 14.6455 23.039 14.3902 23.274C14.1349 23.5089 13.8163 23.6636 13.4745 23.7184C13.1327 23.7733 12.783 23.7259 12.4694 23.5822C12.1558 23.4385 11.8923 23.2049 11.7122 22.9109L8.38223 17.4949L2.04686 17.982C1.70209 18.0082 1.35792 17.9323 1.0573 17.7638C0.756688 17.5953 0.512964 17.3417 0.356566 17.0346C0.200166 16.7274 0.138026 16.3804 0.177904 16.0369C0.217782 15.6933 0.35791 15.3685 0.58079 15.1029L4.69486 10.2719L2.27235 4.39873C2.13968 4.07929 2.10526 3.72698 2.17347 3.3866C2.24168 3.04622 2.40944 2.73314 2.65541 2.48717C2.90139 2.24119 3.21446 2.07344 3.55485 2.00523C3.89523 1.93702 4.24754 1.97143 4.56698 2.1041L10.4394 4.52737L15.2704 0.4133C15.5357 0.189142 15.8607 0.0478192 16.2047 0.00703417C16.5487 -0.0337498 16.8965 0.0278203 17.2044 0.184029C17.5122 0.340239 17.7666 0.584142 17.9355 0.885178C18.1044 1.18622 18.1805 1.531 18.154 1.87633L18.1578 1.87103Z" fill="white"/>
</svg>
