<svg width="66" height="66" viewBox="0 0 66 66" fill="none" xmlns="http://www.w3.org/2000/svg">
<path d="M50.5569 31.272L47.1231 28.2L44.0769 22.3334C43.8154 21.9237 43.4486 21.5859 43.0121 21.3524C42.5756 21.1188 42.084 20.9975 41.5846 21H24.4154C23.916 20.9975 23.4244 21.1188 22.9879 21.3524C22.5514 21.5859 22.1846 21.9237 21.9231 22.3334L18.8769 28.2L15.4431 31.272C15.3032 31.397 15.1916 31.5484 15.1154 31.7168C15.0391 31.8852 14.9999 32.067 15 32.2507V43.6667C15 44.0203 15.1459 44.3594 15.4055 44.6095C15.6652 44.8595 16.0174 45 16.3846 45H21.9231C22.4769 45 23.3077 44.4667 23.3077 43.9333V42.3333H42.6923V43.6667C42.6923 44.2 43.2462 45 43.8 45H49.6154C49.9826 45 50.3348 44.8595 50.5945 44.6095C50.8541 44.3594 51 44.0203 51 43.6667V32.2507C51.0002 32.067 50.9609 31.8852 50.8846 31.7168C50.8084 31.5484 50.6968 31.397 50.5569 31.272ZM24.6923 23.6667H41.3077L44.0769 29H21.9231L24.6923 23.6667ZM26.0769 35.9334C26.0769 36.4667 25.2462 37 24.6923 37H18.8769C18.3231 37 17.7692 36.2 17.7692 35.6667V32.7334C18.0462 31.9334 18.6 31.4 19.4308 31.6667L24.9692 32.7334C25.5231 32.7334 26.0769 33.5334 26.0769 34.0667V35.9334ZM48.2308 35.6667C48.2308 36.2 47.6769 37 47.1231 37H41.3077C40.7538 37 39.9231 36.4667 39.9231 35.9334V34.0667C39.9231 33.5334 40.4769 32.7334 41.0308 32.7334L46.5692 31.6667C47.4 31.4 47.9538 31.9334 48.2308 32.7334V35.6667Z" fill="white"/>
</svg>
